<svg width="20" height="12" viewBox="0 0 20 12" fill="none" xmlns="http://www.w3.org/2000/svg">
<path d="M0.693211 2.10807L0.693136 2.10799C0.302086 1.71713 0.302185 1.08361 0.693068 0.693101L0.693207 0.692963C1.08383 0.302339 1.71745 0.302356 2.10801 0.692952L2.39054 0.410446L2.10802 0.692959L9.71724 8.30244L10.0001 8.5853L10.2829 8.30244L17.8918 0.693242C17.8918 0.693221 17.8919 0.693201 17.8919 0.69318C18.2828 0.302516 18.9163 0.302619 19.3069 0.693185L19.3069 0.693242C19.6977 1.08382 19.6977 1.71741 19.3069 2.10828L19.3069 2.10829L10.7073 10.708C10.7073 10.708 10.7073 10.708 10.7073 10.7081C10.5117 10.9035 10.2567 11.0009 10.0001 11.0009C9.74345 11.0009 9.4881 10.9032 9.29268 10.7079C9.29267 10.7078 9.29266 10.7078 9.29265 10.7078L0.693211 2.10807Z" fill="#333333" stroke="white" stroke-width="0.8"/>
</svg>
