<svg width="46" height="46" viewBox="0 0 46 46" fill="none" xmlns="http://www.w3.org/2000/svg">
<path d="M40.6094 0H5.39062C2.41823 0 0 2.41823 0 5.39062V12.5781H3.59375V5.39062C3.59375 4.39983 4.39983 3.59375 5.39062 3.59375H40.6094C41.6002 3.59375 42.4062 4.39983 42.4062 5.39062V40.6094C42.4062 41.6002 41.6002 42.4062 40.6094 42.4062H5.39062C4.39983 42.4062 3.59375 41.6002 3.59375 40.6094V33.4219H0V40.6094C0 43.5818 2.41823 46 5.39062 46H40.6094C43.5818 46 46 43.5818 46 40.6094V5.39062C46 2.41823 43.5818 0 40.6094 0Z" fill="#1A6FB2"/>
<path d="M21.5625 11.834L19.0214 14.3751L25.8495 21.2033H0V24.797H25.8495L19.0214 31.6251L21.5625 34.1663L32.7286 23.0001L21.5625 11.834Z" fill="#1A6FB2"/>
</svg>
