<svg width="47" height="47" viewBox="0 0 47 47" fill="none" xmlns="http://www.w3.org/2000/svg">
<path d="M31.187 24.7817C34.747 22.3297 37.0859 18.2261 37.0859 13.5859C37.0859 6.09467 30.9913 0 23.5 0C16.0087 0 9.91406 6.09467 9.91406 13.5859C9.91406 18.2261 12.253 22.3297 15.8131 24.7817C12.4891 25.9287 9.44259 27.8235 6.88302 30.3829C2.44446 34.8216 0 40.7229 0 47H3.67188C3.67188 36.0667 12.5667 27 23.5 27L27 26.5L30 25.5L31.187 24.7817ZM23.5 23.5C18.0334 23.5 13.5859 19.0526 13.5859 13.5859C13.5859 8.11925 18.0334 3.67188 23.5 3.67188C28.9666 3.67188 33.4141 8.11925 33.4141 13.5859C33.4141 19.0526 28.9666 23.5 23.5 23.5Z" fill="#1A6FB2"/>
<path d="M36 28H39V47H36V28Z" fill="#1A6FB2"/>
<path d="M28 39V36H47V39H28Z" fill="#1A6FB2"/>
</svg>
