<svg width="154" height="55" viewBox="0 0 154 55" fill="none" xmlns="http://www.w3.org/2000/svg">
<path fill-rule="evenodd" clip-rule="evenodd" d="M10.4631 0L7.84566 7.13852H44.1169L46.7343 0H10.4631ZM6.53614 10.7062L3.91875 17.8431H40.19L42.8074 10.7062H6.53614ZM2.6174 21.4123L0 28.5492H36.2713L38.887 21.4123H2.6174Z" fill="#009FDF"/>
<mask id="mask0" mask-type="alpha" maskUnits="userSpaceOnUse" x="54" y="10" width="100" height="45">
<path d="M54.418 54.5713H153.706V10.8434H54.418V54.5713Z" fill="white"/>
</mask>
<g mask="url(#mask0)">
<path fill-rule="evenodd" clip-rule="evenodd" d="M77.1099 31.2695V31.4201C78.7675 32.0259 80.3509 33.0852 81.1805 33.7655C83.7437 35.884 84.8751 38.6829 84.8751 42.3143C84.8751 48.2927 81.7083 52.6043 76.5062 53.9665C74.9229 54.42 73.2652 54.5723 70.1727 54.5723H54.418V10.8434H68.365C71.2299 10.8434 73.1894 10.994 74.9229 11.4475C79.9749 12.8097 83.2917 16.2905 83.2917 21.812C83.2917 24.7631 82.2361 27.2607 80.5027 28.9242C79.7489 29.6806 78.6933 30.5892 77.1099 31.2695ZM63.1629 35.884V47.384H69.1946C71.0023 47.384 72.6616 47.2334 73.8689 46.0979C75.0746 44.9625 75.6024 43.5258 75.6024 41.634C75.6024 40.1973 75.2247 38.8352 74.4709 37.852C73.1894 36.2631 71.606 35.884 68.8928 35.884H63.1629ZM63.087 28.3184H67.9873C69.4948 28.3184 70.2486 28.3184 71.0023 28.0916C73.0393 27.4858 74.3208 25.6718 74.3208 23.1742C74.3208 20.2247 72.9634 18.937 71.0023 18.3329C70.1727 18.1062 69.3447 18.03 67.6854 18.03H63.087V28.3184ZM97.9925 54.5723V18.1806H85.4029V10.8434H120.384L117.897 18.1806H106.737V54.5723H97.9925ZM123.097 54.5723V10.8434H151.445L148.958 18.1806H131.768V27.8649H138.78C144.434 27.8649 147.374 29.2271 149.41 30.9666C150.993 32.3288 153.706 35.3544 153.706 41.3328C153.706 47.2334 150.917 50.4857 148.58 52.1508C145.867 54.041 143.002 54.5723 137.196 54.5723H123.097ZM131.768 47.2334H138.328C140.815 47.2334 142.322 46.6276 143.378 45.2654C143.906 44.5851 144.66 43.3736 144.66 41.1044C144.66 38.8352 143.906 37.2462 142.398 36.1108C141.494 35.4305 140.287 35.0532 138.252 35.0532H131.768V47.2334Z" fill="#0A2973"/>
</g>
</svg>
