<svg width="41" height="32" viewBox="0 0 41 32" fill="none" xmlns="http://www.w3.org/2000/svg">
<path d="M7.22194 11.2056L14.9976 19.1506L15.7116 19.8802L16.4263 19.1513L33.7785 1.4545C34.0832 1.14398 34.4257 1 34.8637 1C35.3009 1 35.6437 1.14415 35.9485 1.45477L39.5455 5.11769M7.22194 11.2056V11.2056ZM7.22194 11.2056C6.91662 10.895 6.57393 10.7509 6.13694 10.7509C5.69913 10.7509 5.35688 10.8946 5.05149 11.2056L1.45414 14.8689C1.14804 15.1806 1 15.538 1 16.0002C1 16.4619 1.14805 16.8198 1.454 17.1312L11.0294 26.8819L14.627 30.5451C14.9319 30.8559 15.2746 31 15.7123 31C16.1488 31 16.4916 30.8562 16.7975 30.5451L20.395 26.8819L39.5459 7.38024M39.5455 5.11769V5.11769ZM39.5455 5.11769C39.8519 5.43015 40.0002 5.78809 40 6.24848C40 6.71003 39.852 7.06808 39.5459 7.38024M39.5459 7.38024V7.38024Z" stroke="#5DBB5F" stroke-width="2"/>
</svg>
