<svg width="41" height="41" viewBox="0 0 41 41" fill="none" xmlns="http://www.w3.org/2000/svg">
<path d="M40.7935 19.0994H38.8263V10.0505C38.8263 7.88114 37.0615 6.11626 34.8921 6.11626H32.2278L29.5013 1.21417C29.0858 0.465001 28.295 0 27.4374 0C27.0376 0 26.6411 0.103089 26.2909 0.29739L15.8273 6.11614H4.13934C1.96995 6.11614 0.205078 7.88101 0.205078 10.0504V37.0656C0.205078 39.235 1.96995 40.9999 4.13934 40.9999H34.8921C37.0615 40.9999 38.8263 39.235 38.8263 37.0656V29.1317H40.7935V19.0994ZM34.8921 7.6899C36.1038 7.6899 37.0937 8.61047 37.2266 9.7884H34.2696L33.1034 7.6899H34.8921ZM27.0565 1.6728C27.4255 1.46589 27.9221 1.61061 28.1258 1.97815L32.4692 9.78766H12.4627L27.0565 1.6728ZM37.2526 37.0656C37.2526 38.3671 36.1934 39.4263 34.8919 39.4263H4.13934C2.83788 39.4263 1.77871 38.3671 1.77871 37.0656V10.0505C1.77871 8.74906 2.83788 7.6899 4.13934 7.6899H12.9977L9.22398 9.78852H4.63115C4.19603 9.78852 3.84428 10.141 3.84428 10.5754C3.84428 11.0098 4.19603 11.3623 4.63115 11.3623H6.3937H35.1446H37.2526V19.1002H31.4983C28.8261 19.1002 26.6513 21.2751 26.6513 23.9472V24.2856C26.6513 26.9578 28.8262 29.1326 31.4983 29.1326H37.2526V37.0656ZM39.2197 27.5581H38.8263H31.4983C29.6933 27.5581 28.225 26.0899 28.225 24.2847V23.9463C28.225 22.1413 29.6932 20.6729 31.4983 20.6729H38.8263H39.2197V27.5581ZM33.9084 24.1802C33.9084 25.1402 33.131 25.9175 32.1711 25.9175C31.2111 25.9175 30.4338 25.14 30.4338 24.1802C30.4338 23.2203 31.2112 22.4428 32.1711 22.4428C33.1311 22.4427 33.9084 23.2209 33.9084 24.1802Z" fill="#5DBB5F"/>
</svg>
